<?xml version="1.0" encoding="utf-8"?>
<!-- Generator: Adobe Illustrator 26.0.2, SVG Export Plug-In . SVG Version: 6.00 Build 0)  -->
<svg version="1.1" id="Layer_1" xmlns="http://www.w3.org/2000/svg" xmlns:xlink="http://www.w3.org/1999/xlink" x="0px" y="0px"
	 viewBox="0 0 28.2 26.9" style="enable-background:new 0 0 28.2 26.9;" xml:space="preserve">
<style type="text/css">
	.st0{fill:none;stroke:#777777;stroke-width:1.5;}
</style>
<path id="Path_507" class="st0" d="M21.3,26.1l-6.8-3.6c-0.3-0.1-0.6-0.1-0.8,0l-6.8,3.6c-0.4,0.2-1,0.1-1.2-0.4
	c-0.1-0.2-0.1-0.4-0.1-0.6l1.3-7.6c0-0.3,0-0.6-0.3-0.8L1,11.3C0.7,11,0.7,10.4,1,10c0.1-0.1,0.3-0.2,0.5-0.3l7.6-1.1
	c0.3,0,0.6-0.2,0.7-0.5l3.4-6.9c0.2-0.4,0.8-0.6,1.2-0.4c0.2,0.1,0.3,0.2,0.4,0.4l3.4,6.9c0.1,0.3,0.4,0.5,0.7,0.5l7.6,1.1
	c0.5,0.1,0.8,0.5,0.8,1c0,0.2-0.1,0.4-0.3,0.5l-5.5,5.4c-0.2,0.2-0.3,0.5-0.3,0.8l1.3,7.6c0.1,0.5-0.2,1-0.7,1
	C21.7,26.2,21.5,26.2,21.3,26.1z"/>
</svg>
