<svg xmlns="http://www.w3.org/2000/svg" width="28.161" height="26.941" viewBox="0 0 28.161 26.941">
  <path id="Path_507" data-name="Path 507" d="M211.224,293.422l-6.825-3.592a.906.906,0,0,0-.843,0l-6.828,3.586a.906.906,0,0,1-1.314-.955l1.308-7.6a.906.906,0,0,0-.26-.8l-5.52-5.386a.906.906,0,0,1,.5-1.545l7.633-1.105a.906.906,0,0,0,.682-.5l3.417-6.914a.906.906,0,0,1,1.624,0l3.41,6.918a.906.906,0,0,0,.682.5l7.632,1.113a.906.906,0,0,1,.5,1.545l-5.525,5.381a.905.905,0,0,0-.261.8l1.3,7.6A.906.906,0,0,1,211.224,293.422Z" transform="translate(-189.903 -267.356)" fill="none" stroke="#fb5e0a" stroke-width="1.5"/>
</svg>
