<svg width="18" height="16" viewBox="0 0 18 16" fill="none" xmlns="http://www.w3.org/2000/svg">
<path d="M9.00008 15.5L7.79175 14.4166C6.38897 13.1528 5.22925 12.0625 4.31258 11.1458C3.39591 10.2291 2.66675 9.40609 2.12508 8.67665C1.58341 7.94776 1.20508 7.27776 0.990081 6.66665C0.774526 6.05554 0.666748 5.43053 0.666748 4.79165C0.666748 3.48609 1.10425 2.39581 1.97925 1.52081C2.85425 0.645813 3.94453 0.208313 5.25008 0.208313C5.9723 0.208313 6.6598 0.361091 7.31258 0.666646C7.96536 0.972202 8.52786 1.40276 9.00008 1.95831C9.4723 1.40276 10.0348 0.972202 10.6876 0.666646C11.3404 0.361091 12.0279 0.208313 12.7501 0.208313C14.0556 0.208313 15.1459 0.645813 16.0209 1.52081C16.8959 2.39581 17.3334 3.48609 17.3334 4.79165C17.3334 5.43053 17.2259 6.05554 17.0109 6.66665C16.7954 7.27776 16.4167 7.94776 15.8751 8.67665C15.3334 9.40609 14.6042 10.2291 13.6876 11.1458C12.7709 12.0625 11.6112 13.1528 10.2084 14.4166L9.00008 15.5Z" fill="#292929"/>
</svg>
