<svg xmlns="http://www.w3.org/2000/svg" width="37.993" height="38" viewBox="0 0 37.993 38">
  <g id="Group_1929" data-name="Group 1929" transform="translate(320.361 -1698.099)">
    <path id="Path_209" data-name="Path 209" d="M-291.866,1736.1h-19c-.338-.062-.676-.118-1.013-.186a10.494,10.494,0,0,1-8.483-10.351q-.009-8.458.006-16.916a11.285,11.285,0,0,1,.178-2.026,10.467,10.467,0,0,1,8.149-8.288,11.351,11.351,0,0,1,2.242-.221c5.613-.018,11.226-.006,16.839-.012a10.129,10.129,0,0,1,4.313.9,10.342,10.342,0,0,1,5.975,7.2c.116.464.191.939.286,1.409v19a2.977,2.977,0,0,0-.077.32,9.907,9.907,0,0,1-.823,2.939,10.37,10.37,0,0,1-7.193,5.956C-290.924,1735.93-291.4,1736.005-291.866,1736.1Zm6.093-18.981h.015q0-4.137,0-8.274a7.848,7.848,0,0,0-.365-2.515,7.179,7.179,0,0,0-6.914-4.847c-5.552.037-11.1.011-16.657.009a7.7,7.7,0,0,0-2.441.365,7.19,7.19,0,0,0-4.847,6.952c.043,5.528.008,11.057.018,16.586a8.7,8.7,0,0,0,.145,1.656,7.127,7.127,0,0,0,7.089,5.669c5.577-.034,11.154-.013,16.731-.007a6.9,6.9,0,0,0,3.388-.787,6.757,6.757,0,0,0,3.816-5.975C-285.706,1723.008-285.773,1720.062-285.773,1717.119Z" fill="#fff"/>
    <path id="Path_210" data-name="Path 210" d="M-277.854,1750.4a9.812,9.812,0,0,1-9.8-9.807,9.813,9.813,0,0,1,9.787-9.782,9.814,9.814,0,0,1,9.8,9.807A9.813,9.813,0,0,1-277.854,1750.4Zm.008-16.192a6.379,6.379,0,0,0-6.41,6.393,6.378,6.378,0,0,0,6.363,6.4,6.381,6.381,0,0,0,6.429-6.374A6.38,6.38,0,0,0-277.847,1734.209Z" transform="translate(-23.503 -23.507)" fill="#fff"/>
    <path id="Path_211" data-name="Path 211" d="M-222.952,1725.587a2.48,2.48,0,0,1-2.469-2.478,2.51,2.51,0,0,1,2.489-2.47,2.511,2.511,0,0,1,2.472,2.49A2.484,2.484,0,0,1-222.952,1725.587Z" transform="translate(-68.221 -16.196)" fill="#fff"/>
  </g>
</svg>
