<?xml version="1.0" encoding="utf-8"?>
<!-- Generator: Adobe Illustrator 26.0.1, SVG Export Plug-In . SVG Version: 6.00 Build 0)  -->
<svg version="1.1" id="Component_15_3" xmlns="http://www.w3.org/2000/svg" xmlns:xlink="http://www.w3.org/1999/xlink" x="0px"
	 y="0px" viewBox="0 0 1114.8 201" style="enable-background:new 0 0 1114.8 201;" xml:space="preserve">
<style type="text/css">
	.st0{fill:#FFFFFF;}
</style>
<rect id="Rectangle_614" x="575" class="st0" width="3" height="201"/>
<path id="Path_145" class="st0" d="M22.9,32.1L0,100.8h12.5l4.9-16.5H41l4.8,16.5h12.9l-22-68.7H22.9z M20.1,74.6l9.4-32.1h0.2
	l8.6,32.1H20.1z"/>
<path id="Path_146" class="st0" d="M115.8,49.3c-7.3,0-11.3,4.1-13,8.1h-0.2V26.9H90.4v65.2c0.1,2.9-0.1,5.8-0.4,8.7h11.4
	c0.3-2.6,0.4-5.2,0.4-7.9h0.3c2,4.3,5.6,8.7,13.4,8.7c12.5,0,17.7-12,17.7-26.1C133.3,58.9,126.7,49.3,115.8,49.3z M112.2,92.6
	c-7.2,0-9.6-7.8-9.6-17.3c0-9.8,2.7-17,9.4-17c6.8,0,9.1,6.6,9.1,16.7C121.1,86.7,119.2,92.6,112.2,92.6L112.2,92.6z"/>
<path id="Path_147" class="st0" d="M182.7,50.1h-12.2v29c0,6.5-1.9,12.4-8.3,12.4c-5.1,0-7.3-3.2-7.3-11V50.1h-12.2v32.7
	c0,10.2,3.4,18.8,14.9,18.8c7.9,0,11.1-4.8,13.4-8.6l-0.1-0.1l0.3,0.1c0,2.6,0.3,5.2,0.4,7.8h11.4c-0.3-2.8-0.4-5.6-0.4-8.4
	L182.7,50.1z"/>
<path id="Path_148" class="st0" d="M230.2,88.6c-2.3,1.7-5.8,3.9-13.2,3.9c-9.4,0-12.8-5.2-12.8-13.9h29.2v-2.4
	c0-20.7-9.3-27.1-20.2-27.1c-12.8,0-20.8,11.7-20.8,26.9c0,13.7,7.1,25.4,23.3,25.4c5.2,0,10.3-1.1,15.1-3.2L230.2,88.6z
	 M213.1,57.5c5.5,0,8.4,4.5,8.4,13.5h-17.4C204.1,64.3,206.7,57.5,213.1,57.5L213.1,57.5z"/>
<path id="Path_149" class="st0" d="M270.4,70.3v30.4h12.2V68.1c0-10.2-3.4-18.8-14.9-18.8c-8.2,0-11.7,5.5-13.4,8.6h-0.2
	c0-2.6-0.3-5.2-0.4-7.8h-11.4c0.3,2.8,0.4,5.6,0.4,8.4v42.3h12.2V71.2c0-6.5,2.3-11.9,8.6-11.9C268.5,59.3,270.4,62.6,270.4,70.3z"
	/>
<rect id="Rectangle_615" x="320.2" y="26.9" class="st0" width="12.2" height="73.8"/>
<rect id="Rectangle_616" x="345.5" y="28.5" class="st0" width="12.5" height="12"/>
<rect id="Rectangle_617" x="345.7" y="50.1" class="st0" width="12.2" height="50.7"/>
<path id="Path_150" class="st0" d="M395.6,49.3c-7.3,0-11.3,4.1-13,8.1h-0.2V26.9h-12.1v65.2c0.1,2.9-0.1,5.8-0.4,8.7h11.4
	c0.3-2.6,0.4-5.2,0.4-7.9h0.3c2,4.3,5.6,8.7,13.4,8.7c12.5,0,17.7-12,17.7-26.1C413,58.9,406.4,49.3,395.6,49.3z M391.9,92.6
	c-7.2,0-9.6-7.8-9.6-17.3c0-9.8,2.7-17,9.4-17c6.8,0,9.1,6.6,9.1,16.7C400.9,86.7,399,92.6,391.9,92.6z"/>
<path id="Path_151" class="st0" d="M434.2,59.3H434c0-3.1-0.3-6.2-0.4-9.3h-11c0.3,2.8,0.4,5.6,0.4,8.4v42.3h12.2V73
	c0-9.4,5.5-12.5,10.5-12.5c1.2,0,2.3,0.2,3.4,0.5V49.6c-0.7-0.2-1.4-0.3-2.1-0.3C439.5,49.3,435.6,55.4,434.2,59.3z"/>
<path id="Path_152" class="st0" d="M477,49.3c-10.3,0-22.2,5.4-22.2,26.1c0,21.3,12,26.2,22.2,26.2c10.3,0,22.1-4.9,22.1-26.2
	C499.1,54.7,487.3,49.3,477,49.3z M477,92.9c-7.8,0-9.7-9.1-9.7-17.5s1.9-17.4,9.7-17.4s9.6,9,9.6,17.4S484.8,92.9,477,92.9
	L477,92.9z"/>
<path id="Path_153" class="st0" d="M249.5,141c-3.6,0-5.9,1.9-7.6,4.9c-1.6-3.2-4-4.9-7.4-4.9c-3.4,0-6.1,1.5-7.7,5.1h-0.1l-0.2-4.7
	h-5c0.1,2.2,0.2,4.5,0.2,6.8v24.6h5.2v-19.4c0-5.7,2.1-8,5.9-8c3.1,0,4.8,1.9,4.8,5.9v21.6h5.1v-19.4c0-5.7,2.1-8,5.9-8
	c3.1,0,4.8,1.9,4.8,5.9v21.6h5.2V151C258.6,144.1,254.9,141,249.5,141z"/>
<path id="Path_154" class="st0" d="M276.7,141c-7.8,0-12.1,6.3-12.1,16.1s4.3,16.1,12.6,16.1c3,0,6-0.6,8.8-1.8l-0.2-4.7
	c-2.1,1.5-4.6,2.4-7.2,2.6c-5.7,0-8.5-3.4-8.5-10.7h17.7v-2.8C287.6,146.6,283.7,141,276.7,141z M270,154.7c0.1-7.3,3.1-9.8,6.4-9.8
	c4.1,0,6.1,3.3,6.1,9.8H270z"/>
<path id="Path_155" class="st0" d="M293.8,177.9c0,3.2-0.6,4.1-2.7,4.1c-0.8,0-1.5-0.1-2.3-0.3v4.2c0.9,0.4,1.9,0.6,2.9,0.6
	c5.6,0,7.2-2.6,7.2-7.9v-37.2h-5.1L293.8,177.9z"/>
<rect id="Rectangle_618" x="293.6" y="128.5" class="st0" width="5.6" height="6.2"/>
<path id="Path_156" class="st0" d="M318,141c-8.3,0-12.6,6.3-12.6,16.1s4.3,16.1,12.6,16.1c8.3,0,12.6-6.3,12.6-16.1
	S326.3,141,318,141z M318,169.1c-4.9,0-7.2-4.1-7.2-12s2.3-12,7.2-12s7.2,4.1,7.2,12S322.9,169.1,318,169.1z"/>
<path id="Path_157" class="st0" d="M341.5,146.3h-0.1l-0.2-4.9h-5c0.1,2.2,0.2,4.5,0.2,6.8v24.6h5.2v-16.6c0-6.8,2.8-10.3,6.8-10.3
	c0.7,0,1.3,0.1,2,0.2V141C345.8,141,343.2,142.5,341.5,146.3z"/>
<rect id="Rectangle_619" x="369.9" y="126.6" class="st0" width="5.2" height="46.2"/>
<path id="Path_158" class="st0" d="M393.6,141c-7.8,0-12.1,6.3-12.1,16.1s4.3,16.1,12.6,16.1c3,0,6-0.6,8.8-1.8l-0.2-4.7
	c-2.1,1.5-4.6,2.4-7.2,2.6c-5.7,0-8.5-3.4-8.5-10.7h17.7v-2.8C404.5,146.6,400.6,141,393.6,141z M386.9,154.7
	c0.1-7.3,3.1-9.8,6.4-9.8c4.1,0,6.1,3.3,6.1,9.8H386.9z"/>
<path id="Path_159" class="st0" d="M422.6,168.8c-5,0-8.5-4.1-8.5-11.4c0-8.5,3.6-12,8.6-12c2.1-0.1,4.1,0.5,5.9,1.5l0.2-4.7
	c-2-0.8-4.1-1.3-6.2-1.2c-8.7,0-14,6.3-14,16.5c0,8.9,4.5,15.8,13.9,15.8c2.3,0,4.5-0.5,6.6-1.4l-0.2-4.7
	C426.9,168.2,424.8,168.8,422.6,168.8z"/>
<path id="Path_160" class="st0" d="M441.5,133.4l-5.2,1.5v6.4h-5v4.2h5v20.2c0,5.5,2.5,7.5,7.2,7.5c1.5,0,3-0.3,4.4-0.8v-4.2
	c-1,0.5-2.1,0.8-3.2,0.8c-2.3,0-3.2-1.4-3.2-4.9v-18.5h6.4v-4.2h-6.4L441.5,133.4z"/>
<path id="Path_161" class="st0" d="M463.3,141c-8.3,0-12.6,6.3-12.6,16.1s4.3,16.1,12.6,16.1s12.6-6.3,12.6-16.1
	S471.6,141,463.3,141z M463.3,169.1c-4.9,0-7.2-4.1-7.2-12s2.3-12,7.2-12s7.2,4.1,7.2,12S468.2,169.1,463.3,169.1z"/>
<path id="Path_162" class="st0" d="M486.9,146.3h-0.1l-0.2-4.9h-5c0.1,2.2,0.2,4.5,0.2,6.8v24.6h5.2v-16.6c0-6.8,2.8-10.3,6.8-10.3
	c0.7,0,1.3,0.1,2,0.2V141C491.1,141,488.5,142.5,486.9,146.3z"/>
<rect id="Rectangle_620" x="1072.5" y="104.2" class="st0" width="5.5" height="33.7"/>
<path id="Path_163" class="st0" d="M897.2,136.7l-0.3-4.4c-1.7,1.3-3.9,1.9-6,1.8c-4.3,0-5.9-2.4-5.9-6.3h13.3v-1.1
	c0-9.4-4.2-12.3-9.2-12.3c-5.9,0-9.5,5.3-9.5,12.3c0,6.2,3.2,11.6,10.6,11.6C892.7,138.2,895.1,137.7,897.2,136.7z M889.2,118.2
	c2.5,0,3.8,2.1,3.8,6.2h-8C885.1,121.3,886.3,118.2,889.2,118.2L889.2,118.2z"/>
<path id="Path_164" class="st0" d="M1057.5,114.4c-4.7,0-10.1,2.5-10.1,11.9c0,9.7,5.5,11.9,10.1,11.9c4.7,0,10.1-2.2,10.1-11.9
	C1067.6,116.9,1062.2,114.4,1057.5,114.4z M1057.5,134.3c-3.6,0-4.4-4.1-4.4-8s0.8-7.9,4.4-7.9c3.6,0,4.4,4.1,4.4,7.9
	S1061.1,134.3,1057.5,134.3z"/>
<rect id="Rectangle_621" x="903.2" y="104.2" class="st0" width="5.5" height="33.7"/>
<path id="Path_165" class="st0" d="M1104.8,114.4c-4.7,0-10.1,2.5-10.1,11.9c0,9.7,5.5,11.9,10.1,11.9c4.7,0,10.1-2.2,10.1-11.9
	C1114.9,116.9,1109.4,114.4,1104.8,114.4z M1104.8,134.3c-3.6,0-4.4-4.1-4.4-8s0.8-7.9,4.4-7.9s4.4,4.1,4.4,7.9
	S1108.3,134.3,1104.8,134.3z"/>
<path id="Path_166" class="st0" d="M804.1,138.2c2.6,0.1,5.1-1.3,6.4-3.5h0.1c0,1.1,0.1,2.1,0.3,3.1h5c-0.2-1.4-0.3-2.7-0.3-4.1
	v-10.1c0-5.8-1.7-9.3-8.8-9.3c-2.5,0-5,0.6-7.3,1.7l0.3,4.5c1.8-1.4,4-2.2,6.3-2.2c3.2,0,4.3,2.1,4.3,4.4v0.9h-1.1
	c-7,0-12.1,1.6-12.1,7.9c-0.1,3.7,2.8,6.7,6.4,6.8C803.8,138.2,803.9,138.2,804.1,138.2z M809.9,126.6h0.5v1.3
	c0,4.1-1.2,6.6-4.5,6.6c-1.8,0.1-3.4-1.3-3.5-3.1c0-0.1,0-0.3,0-0.4C802.4,127.5,805.2,126.6,809.9,126.6L809.9,126.6z"/>
<path id="Path_167" class="st0" d="M749.7,134c-2-0.1-4-0.6-5.8-1.5l-0.3,4.6c2,0.7,4.2,1.1,6.4,1.1c5,0,8.6-2.6,8.6-6.8
	c0-2.7-1.4-4-4.3-5.8l-2.7-1.8c-1.6-1-2.6-1.7-2.6-3c0-1.4,0.9-2.2,3.2-2.2c1.7,0,3.3,0.4,4.9,1l0.3-4.3c-1.9-0.6-3.8-0.9-5.8-0.9
	c-4.9,0-8,3.4-8,6.6c0,3.6,2.5,5.1,4.9,6.5l2.3,1.3c2,1.2,2.5,2,2.5,2.9C753.3,133.5,751.7,134,749.7,134z"/>
<path id="Path_168" class="st0" d="M1038,119L1038,119c-0.1-1.4-0.2-2.8-0.3-4.2h-5c0.1,1.3,0.2,2.5,0.2,3.8v19.3h5.5v-12.7
	c0-4.3,2.5-5.7,4.8-5.7c0.5,0,1.1,0.1,1.6,0.2v-5.2c-0.3-0.1-0.6-0.1-0.9-0.1C1040.4,114.4,1038.6,117.2,1038,119z"/>
<path id="Path_169" class="st0" d="M981.6,134c-2-0.1-4-0.6-5.8-1.5l-0.3,4.6c2,0.7,4.2,1.1,6.4,1.1c5,0,8.6-2.6,8.6-6.8
	c0-2.7-1.4-4-4.3-5.8l-2.7-1.8c-1.6-1-2.6-1.7-2.6-3c0-1.4,0.9-2.2,3.2-2.2c1.7,0,3.3,0.4,4.9,1l0.3-4.3c-1.9-0.6-3.8-0.9-5.8-0.9
	c-4.9,0-8,3.4-8,6.6c0,3.6,2.5,5.1,4.9,6.5l2.3,1.3c2,1.2,2.5,2,2.5,2.9C985.1,133.5,983.6,134,981.6,134z"/>
<path id="Path_170" class="st0" d="M839.6,104.2h-5.5v13.9H834c-1-2.3-3.4-3.8-5.9-3.7c-5,0-8,4.4-8,11.9c0,6.4,2.4,11.9,8.1,11.9
	c2.7,0.1,5.2-1.4,6.1-4h0.1c0,1.2,0,2.4,0.2,3.6h5.2c-0.1-1.3-0.2-2.6-0.2-3.9L839.6,104.2z M829.7,134.1c-3.2,0-4.1-2.7-4.1-8
	c0-4.6,1.1-7.6,4.2-7.6c3,0,4.3,3.3,4.3,7.8C834.1,130.6,833,134.1,829.7,134.1z"/>
<rect id="Rectangle_622" x="1084.1" y="104.2" class="st0" width="5.5" height="33.7"/>
<path id="Path_171" class="st0" d="M793.3,104.2h-5.5v13.9h-0.1c-1-2.3-3.4-3.8-5.9-3.7c-5,0-8,4.4-8,11.9c0,6.4,2.4,11.9,8.1,11.9
	c2.7,0.1,5.2-1.4,6.1-4h0.1c0,1.2,0,2.4,0.2,3.6h5.2c-0.1-1.3-0.2-2.6-0.2-3.9L793.3,104.2z M783.4,134.1c-3.2,0-4.1-2.7-4.1-8
	c0-4.6,1.1-7.6,4.2-7.6c3,0,4.3,3.3,4.3,7.8C787.7,130.6,786.6,134.1,783.4,134.1z"/>
<path id="Path_172" class="st0" d="M875.2,104.2h-5.5v13.9h-0.1c-1-2.3-3.4-3.8-5.9-3.7c-5,0-8,4.4-8,11.9c0,6.4,2.4,11.9,8.1,11.9
	c2.7,0.1,5.2-1.4,6.1-4h0.1c0,1.2,0.1,2.4,0.2,3.6h5.2c-0.1-1.3-0.2-2.6-0.2-3.9V104.2z M865.3,134.1c-3.2,0-4.1-2.7-4.1-8
	c0-4.6,1.1-7.6,4.2-7.6c3,0,4.3,3.3,4.3,7.8C869.7,130.6,868.6,134.1,865.3,134.1L865.3,134.1z"/>
<path id="Path_173" class="st0" d="M934.6,106.5h-8.1v31.3h8.1c8.7,0,14.9-5.1,14.9-15.7C949.5,111.8,944.3,106.5,934.6,106.5z
	 M934.1,133.5h-1.9v-22.5h1.9c6.4,0,9.3,4.4,9.3,11.3S940.5,133.5,934.1,133.5L934.1,133.5z"/>
<path id="Path_174" class="st0" d="M1011.8,123.7c0-5.8-1.7-9.3-8.8-9.3c-2.5,0-5,0.6-7.3,1.7l0.3,4.5c1.8-1.4,4-2.2,6.3-2.2
	c3.2,0,4.3,2.1,4.3,4.4v0.9h-1.1c-7,0-12.1,1.6-12.1,7.9c-0.1,3.7,2.8,6.7,6.4,6.8c0.1,0,0.3,0,0.4,0c2.6,0.1,5.1-1.3,6.4-3.5h0.1
	c0,1.1,0.1,2.1,0.3,3.1h5c-0.2-1.4-0.3-2.7-0.3-4.1V123.7z M1006.6,127.9c0,4.1-1.2,6.6-4.5,6.6c-1.8,0.1-3.4-1.3-3.5-3.1
	c0-0.1,0-0.3,0-0.4c0-3.4,2.8-4.4,7.6-4.4h0.5V127.9z"/>
<path id="Path_175" class="st0" d="M741.3,114.5c-0.3-0.1-0.6-0.1-0.9-0.1c-3.4,0-5.2,2.8-5.9,4.6h-0.1c0-1.4-0.1-2.8-0.2-4.2h-5
	c0.1,1.3,0.2,2.5,0.2,3.8v19.3h5.5v-12.7c0-4.3,2.5-5.7,4.8-5.7c0.5,0,1.1,0.1,1.6,0.2L741.3,114.5z"/>
<rect id="Rectangle_623" x="763.2" y="104.9" class="st0" width="5.7" height="5.5"/>
<rect id="Rectangle_624" x="763.3" y="114.7" class="st0" width="5.5" height="23.1"/>
<path id="Path_176" class="st0" d="M970.7,132.3c-1.7,1.3-3.9,1.9-6,1.8c-4.3,0-5.9-2.4-5.9-6.3h13.3v-1.1c0-9.4-4.2-12.3-9.2-12.3
	c-5.9,0-9.5,5.3-9.5,12.3c0,6.2,3.2,11.6,10.6,11.6c2.4,0,4.7-0.5,6.9-1.5L970.7,132.3z M962.9,118.2c2.5,0,3.8,2.1,3.8,6.2h-8
	C958.8,121.3,960,118.2,962.9,118.2z"/>
<path id="Path_177" class="st0" d="M715.8,114.4c-5.9,0-9.5,5.3-9.5,12.3c0,6.2,3.2,11.6,10.6,11.6c2.4,0,4.7-0.5,6.9-1.5l-0.3-4.4
	c-1.7,1.3-3.9,1.9-6,1.8c-4.3,0-5.9-2.4-5.9-6.3H725v-1.1C725,117.3,720.7,114.4,715.8,114.4z M711.7,124.3c0-3.1,1.2-6.2,4.1-6.2
	c2.5,0,3.8,2.1,3.8,6.2H711.7z"/>
<rect id="Rectangle_625" x="674.3" y="104.9" class="st0" width="5.7" height="5.5"/>
<rect id="Rectangle_626" x="674.3" y="114.7" class="st0" width="5.5" height="23.1"/>
<path id="Path_178" class="st0" d="M662,114.4c-2.6,0-5,1.5-6.1,3.9h-0.1c0-1.2-0.1-2.4-0.2-3.5h-5.2c0.1,1.3,0.2,2.5,0.2,3.8v19.3
	h5.5v-13.5c0-3,1-5.4,3.9-5.4c2.3,0,3.2,1.5,3.2,5v13.9h5.5V123C668.8,118.3,667.2,114.4,662,114.4z"/>
<path id="Path_179" class="st0" d="M693.9,132.6L693.9,132.6l-4.8-17.8h-5.7l7,23.1h6.5l7.1-23.1h-5.4L693.9,132.6z"/>
<path id="Path_180" class="st0" d="M1022.2,119L1022.2,119c-0.1-1.4-0.2-2.8-0.3-4.2h-5c0.1,1.3,0.2,2.5,0.2,3.8v19.3h5.5v-12.7
	c0-4.3,2.5-5.7,4.8-5.7c0.5,0,1.1,0.1,1.6,0.2v-5.2c-0.3-0.1-0.6-0.1-0.9-0.1C1024.7,114.4,1022.9,117.2,1022.2,119z"/>
<path id="Path_181" class="st0" d="M639.4,126.8c0,5.2-1.6,6.9-4.9,6.9c-3.4,0-4.9-1.7-4.9-6.9v-20.3h-5.7v20.3
	c0,8.3,4.7,11.5,10.6,11.5c5.9,0,10.6-3.2,10.6-11.5v-20.3h-5.7V126.8z"/>
<path id="Path_182" class="st0" d="M979.9,149.7h-3l-2,4.4h1.9L979.9,149.7z"/>
<path id="Path_183" class="st0" d="M907.4,148.9h-2.6v9.5h-0.1c-0.7-1.5-2.3-2.4-4-2.4c-3.2,0-5.4,2.6-5.4,8s2.2,8,5.4,8
	c1.7,0,3.3-0.9,4.1-2.5h0.1l0.1,2.3h2.5c0-0.9-0.1-1.9-0.1-2.9L907.4,148.9z M901.4,170c-2.3,0-3.4-2-3.4-5.9s1.1-5.9,3.4-5.9
	s3.4,2,3.4,5.9S903.8,170,901.4,170L901.4,170z"/>
<path id="Path_184" class="st0" d="M948.3,161.3c0.1-1.4-0.4-2.8-1.3-3.8c-1.1-1-2.6-1.5-4.1-1.5c-1.6,0-3.1,0.5-4.4,1.3l0.3,2.4
	c1.1-1.1,2.5-1.6,4-1.6c1-0.1,1.9,0.3,2.6,1c0.5,0.7,0.7,1.6,0.6,2.5v0.7h-1.5c-5.3,0-7.3,2.2-7.3,5.3c-0.2,2.3,1.5,4.3,3.8,4.5
	c0.2,0,0.5,0,0.7,0c1.8,0.1,3.5-0.8,4.3-2.3h0.1l0.2,2.1h2.3c-0.1-0.5-0.1-1.5-0.1-2.4L948.3,161.3z M945.8,166.2
	c0.1,2-1.4,3.8-3.4,3.9c-0.1,0-0.1,0-0.2,0c-1.3,0.1-2.5-0.9-2.6-2.2c0-0.2,0-0.4,0-0.5c0-1.8,1.4-3.2,4.4-3.2c0.6,0,1.2,0,1.8,0.1
	L945.8,166.2z"/>
<path id="Path_185" class="st0" d="M931.9,169.9c-2.5,0-4.2-2-4.2-5.7c0-4.2,1.8-6,4.3-6c1,0,2.1,0.2,3,0.7l0.1-2.3
	c-1-0.4-2-0.6-3.1-0.6c-4.3,0-6.9,3.1-6.9,8.2c0,4.4,2.2,7.8,6.9,7.8c1.1,0,2.2-0.3,3.3-0.7l-0.1-2.3
	C934.1,169.6,933,169.8,931.9,169.9z"/>
<path id="Path_186" class="st0" d="M922,156.3h-2.6v9.4c0,2.8-1.3,4.2-3.3,4.2c-1.6,0-2.6-1.1-2.6-3.5v-10.1H911v10.8
	c0,3.4,1.8,5,4.5,5c1.7,0.1,3.3-0.9,3.9-2.5h0.1l0.1,2.3h2.5c0-1.1-0.1-2.2-0.1-3.4L922,156.3z"/>
<path id="Path_187" class="st0" d="M866.1,156.1c-3.9,0-6,3.1-6,8s2.1,8,6.2,8c1.5,0,3-0.3,4.3-0.9l-0.1-2.3c-1,0.8-2.3,1.2-3.6,1.3
	c-2.8,0-4.2-1.7-4.2-5.3h8.8v-1.4C871.6,158.9,869.6,156.1,866.1,156.1z M862.8,162.9c0.1-3.6,1.5-4.9,3.2-4.9c2,0,3,1.6,3,4.9
	H862.8z"/>
<path id="Path_188" class="st0" d="M885.2,161.9h6.9v-2.3h-6.9v-6.8h7.2v-2.3h-9.9v21.3h10.3v-2.3h-7.6L885.2,161.9z"/>
<path id="Path_189" class="st0" d="M958.2,169.9c-2.5,0-4.2-2-4.2-5.7c0-4.2,1.8-6,4.3-6c1,0,2,0.2,2.9,0.7l0.1-2.3
	c-1-0.4-2-0.6-3.1-0.6c-4.3,0-6.9,3.1-6.9,8.2c0,4.4,2.2,7.8,6.9,7.8c1.1,0,2.2-0.3,3.3-0.7l-0.1-2.3
	C960.3,169.6,959.2,169.8,958.2,169.9z"/>
<path id="Path_190" class="st0" d="M992.2,156.1c-1.7-0.1-3.3,0.9-3.9,2.5h-0.1l-0.1-2.3h-2.5c0,1.1,0.1,2.2,0.1,3.4v12.2h2.6v-9.4
	c0-2.8,1.3-4.2,3.3-4.2c1.6,0,2.6,1.1,2.6,3.5v10h2.6V161C996.7,157.6,994.9,156.1,992.2,156.1z"/>
<path id="Path_191" class="st0" d="M976.4,156.1c-4.1,0-6.2,3.1-6.2,8s2.1,8,6.2,8s6.2-3.1,6.2-8S980.5,156.1,976.4,156.1z
	 M976.4,170c-2.4,0-3.6-2-3.6-5.9s1.1-5.9,3.6-5.9s3.6,2,3.6,5.9S978.8,170,976.4,170z"/>
<rect id="Rectangle_627" x="964.1" y="149.9" class="st0" width="2.8" height="3.1"/>
<rect id="Rectangle_628" x="964.3" y="156.3" class="st0" width="2.6" height="15.6"/>
<path id="Path_192" class="st0" d="M835.1,148.9h-2.6v9.5h-0.1c-0.7-1.5-2.3-2.4-4-2.4c-3.2,0-5.4,2.6-5.4,8s2.2,8,5.4,8
	c1.7,0,3.3-0.9,4.1-2.5h0.1l0.1,2.3h2.5c0-0.9-0.1-1.9-0.1-2.9L835.1,148.9z M829.1,170c-2.3,0-3.4-2-3.4-5.9s1.1-5.9,3.4-5.9
	c2.3,0,3.4,2,3.4,5.9S831.4,170,829.1,170z"/>
<path id="Path_193" class="st0" d="M857.3,148.9h-2.6v9.5h-0.1c-0.7-1.5-2.3-2.4-4-2.4c-3.2,0-5.4,2.6-5.4,8s2.2,8,5.4,8
	c1.7,0,3.3-0.9,4.1-2.5h0.1l0.1,2.3h2.5c0-0.9-0.1-1.9-0.1-2.9L857.3,148.9z M851.3,170c-2.3,0-3.4-2-3.4-5.9s1.1-5.9,3.4-5.9
	s3.4,2,3.4,5.9S853.7,170,851.3,170L851.3,170z"/>
<path id="Path_194" class="st0" d="M772.9,169.9c-2.5,0-4.2-2-4.2-5.7c0-4.2,1.8-6,4.3-6c1,0,2.1,0.2,2.9,0.7l0.1-2.3
	c-1-0.4-2-0.6-3.1-0.6c-4.3,0-6.9,3.1-6.9,8.2c0,4.4,2.2,7.8,6.9,7.8c1.1,0,2.2-0.3,3.3-0.7l-0.1-2.3
	C775.1,169.6,774,169.8,772.9,169.9z"/>
<rect id="Rectangle_629" x="793.9" y="148.9" class="st0" width="2.6" height="22.9"/>
<path id="Path_195" class="st0" d="M763.1,161.3c0.1-1.4-0.3-2.8-1.3-3.8c-1.1-1-2.6-1.5-4.1-1.5c-1.6,0-3.1,0.5-4.4,1.3l0.3,2.4
	c1.1-1.1,2.5-1.6,4-1.6c1-0.1,1.9,0.3,2.6,1c0.5,0.7,0.7,1.6,0.6,2.5v0.7h-1.5c-5.3,0-7.3,2.2-7.3,5.3c-0.2,2.3,1.5,4.3,3.8,4.5
	c0.2,0,0.5,0,0.7,0c1.8,0.1,3.5-0.8,4.3-2.3h0.1l0.2,2.1h2.3c-0.1-0.8-0.1-1.6-0.1-2.4L763.1,161.3z M760.6,166.2
	c0.1,2-1.4,3.8-3.4,3.9c-0.1,0-0.1,0-0.2,0c-1.3,0.1-2.5-0.9-2.6-2.2c0-0.2,0-0.4,0-0.5c0-1.8,1.4-3.2,4.4-3.2c0.6,0,1.2,0,1.8,0.1
	L760.6,166.2z"/>
<path id="Path_196" class="st0" d="M789.8,156.3h-2.6v9.4c0,2.8-1.3,4.2-3.3,4.2c-1.6,0-2.6-1.1-2.6-3.5v-10.1h-2.6v10.8
	c0,3.4,1.8,5,4.5,5c1.7,0.1,3.3-0.9,3.9-2.5h0.1l0.1,2.3h2.5c0-1.1-0.1-2.2-0.1-3.4L789.8,156.3z"/>
<path id="Path_197" class="st0" d="M741.3,171.8h2.7v-9.9h6.5v-2.3H744v-6.8h6.8v-2.3h-9.5V171.8z"/>
<path id="Path_198" class="st0" d="M804.2,152.3l-2.6,0.8v3.2h-2.5v2.1h2.5v10c0,2.7,1.2,3.7,3.6,3.7c0.7,0,1.5-0.2,2.2-0.4v-2.1
	c-0.5,0.2-1,0.4-1.6,0.4c-1.2,0-1.6-0.7-1.6-2.4v-9.2h3.2v-2.1h-3.2L804.2,152.3z"/>
<path id="Path_199" class="st0" d="M820.1,161.3c0.1-1.4-0.4-2.8-1.3-3.8c-1.1-1-2.6-1.5-4.1-1.5c-1.6,0-3.1,0.5-4.4,1.3l0.3,2.4
	c1.1-1.1,2.5-1.6,4-1.6c1-0.1,1.9,0.3,2.6,1c0.5,0.7,0.7,1.6,0.6,2.5v0.7h-1.5c-5.3,0-7.3,2.2-7.3,5.3c-0.2,2.3,1.5,4.3,3.8,4.5
	c0.2,0,0.5,0,0.7,0c1.8,0.1,3.5-0.8,4.4-2.3h0.1l0.2,2.1h2.3c-0.1-0.5-0.1-1.5-0.1-2.4L820.1,161.3z M817.7,166.2
	c0.1,2-1.4,3.8-3.4,3.9c-0.1,0-0.1,0-0.2,0c-1.3,0.1-2.5-0.9-2.6-2.2c0-0.2,0-0.4,0-0.5c0-1.8,1.4-3.2,4.4-3.2c0.6,0,1.2,0,1.8,0.1
	L817.7,166.2z"/>
<path id="Path_200" class="st0" d="M800,89.3c13.2,0,32.6,0,35.2,0l0-58.4h-15.5c0,13,0,43.6,0,43.6h-18.4
	c-12.1,0-18.8-5.6-20.7-14.1c-0.6-3-0.9-5.2-0.9-12.6l0-32h-15.5v38.9C764.2,66.6,771.1,89.3,800,89.3z"/>
<path id="Path_201" class="st0" d="M914.5,89.3l57.9,0c0.2,0,0.5-0.1,0.7-0.2c0.2-0.2,0.3-0.4,0.3-0.6c0-34.8-15.3-75.3-74.5-72.6
	v20.6c-11.3-13.2-29.6-21.9-58-20.6v73.4l73.5,0C914.4,89.3,914.4,89.3,914.5,89.3z M856.4,74.4V31.8c16.6,0,38.7,11.8,42.5,42.6
	L856.4,74.4z M914.3,31.8c16.6,0,38.7,11.8,42.5,42.6h-42.3c0-0.3-0.1-0.6-0.1-0.9V31.8z"/>
</svg>
